<svg width="204" height="48" viewBox="0 0 204 48" fill="none" xmlns="http://www.w3.org/2000/svg">
<path d="M30 27.8438C29.6458 28.4896 29.1771 29.3438 28.5938 30.4062C28.0312 31.4688 27.375 32.6562 26.625 33.9688C25.8958 35.2812 25.0938 36.6979 24.2188 38.2188C23.3646 39.7188 22.4688 41.2292 21.5312 42.75C20.6146 44.2708 19.6667 45.7708 18.6875 47.25C17.7292 48.7083 16.7917 50.0625 15.875 51.3125C18.125 51.0833 20.2917 50.5104 22.375 49.5938C24.4583 48.6771 26.4062 47.5417 28.2188 46.1875C30.0521 44.8125 31.7188 43.2812 33.2188 41.5938C34.7396 39.8854 36.0312 38.125 37.0938 36.3125C38.1771 34.4792 39.0104 32.6458 39.5938 30.8125C40.1979 28.9792 40.5 27.25 40.5 25.625C40.5 24.25 40.3229 22.9792 39.9688 21.8125C39.6354 20.6458 39.1146 19.6354 38.4062 18.7812C37.7188 17.9271 36.8333 17.2604 35.75 16.7812C34.6667 16.3021 33.3958 16.0625 31.9375 16.0625C30.5833 16.0625 29.2188 16.1979 27.8438 16.4688C26.4896 16.7188 25.1875 17.0625 23.9375 17.5C22.6875 17.9375 21.5312 18.4583 20.4688 19.0625C19.4271 19.6458 18.5312 20.2812 17.7812 20.9688C16.9479 21.8854 16.2083 22.8021 15.5625 23.7188C14.9375 24.6354 14.3125 25.4583 13.6875 26.1875C13.0833 26.9167 12.4271 27.5104 11.7188 27.9688C11.0104 28.4271 10.1771 28.6562 9.21875 28.6562C7.42708 28.6562 6.53125 27.8646 6.53125 26.2812C6.53125 25.2812 6.85417 24.2083 7.5 23.0625C8.14583 21.8958 9.04167 20.75 10.1875 19.625C11.3542 18.4792 12.7292 17.3854 14.3125 16.3438C15.9167 15.2812 17.6771 14.3542 19.5938 13.5625C21.5104 12.75 23.5521 12.1042 25.7188 11.625C27.8854 11.1458 30.1146 10.9062 32.4062 10.9062C35.0729 10.9062 37.3958 11.3021 39.375 12.0938C41.3542 12.8854 42.9896 13.9792 44.2812 15.375C45.5938 16.75 46.5625 18.375 47.1875 20.25C47.8333 22.125 48.1562 24.1458 48.1562 26.3125C48.1562 28.4792 47.7812 30.75 47.0312 33.125C46.3021 35.5 45.2188 37.8333 43.7812 40.125C42.3646 42.4167 40.6042 44.5938 38.5 46.6562C36.4167 48.7188 34.0104 50.5312 31.2812 52.0938C28.5729 53.6562 25.5625 54.8958 22.25 55.8125C18.9583 56.7292 15.3958 57.1875 11.5625 57.1875C10.7292 57.1875 10.0729 56.9167 9.59375 56.375C9.11458 55.8542 8.875 55.2083 8.875 54.4375C8.875 53.8333 8.97917 53.25 9.1875 52.6875C9.39583 52.125 9.66667 51.6042 10 51.125L22.8438 25.5938C23.4479 24.6562 24.0417 23.9062 24.625 23.3438C25.2292 22.7812 25.7812 22.3438 26.2812 22.0312C26.8021 21.7188 27.2604 21.5208 27.6562 21.4375C28.0521 21.3333 28.3542 21.2812 28.5625 21.2812C29.5 21.2812 30.1667 21.5521 30.5625 22.0938C30.9583 22.6354 31.1562 23.2812 31.1562 24.0312C31.1562 24.6354 31.0521 25.2708 30.8438 25.9375C30.6354 26.6042 30.3542 27.2396 30 27.8438ZM60.875 37.5625C60.7708 37.5417 60.6771 37.5312 60.5938 37.5312C60.5104 37.5312 60.4167 37.5312 60.3125 37.5312C59.5208 37.5312 58.7812 37.6875 58.0938 38C57.4062 38.3125 56.7708 38.7292 56.1875 39.25C55.625 39.75 55.1146 40.3229 54.6562 40.9688C54.2188 41.6146 53.8229 42.2604 53.4688 42.9062C53.1146 43.5312 52.8125 44.1354 52.5625 44.7188C52.3333 45.3021 52.1562 45.7917 52.0312 46.1875C52.7604 45.8125 53.5104 45.3854 54.2812 44.9062C55.0729 44.4271 55.8125 43.9688 56.5 43.5312C57.1875 43.0938 57.7812 42.6979 58.2812 42.3438C58.8021 41.9896 59.1667 41.75 59.375 41.625C60.3125 41.0417 60.9583 40.5 61.3125 40C61.6667 39.4792 61.8438 39.0312 61.8438 38.6562C61.8438 38.3438 61.7396 38.0938 61.5312 37.9062C61.3438 37.7188 61.125 37.6042 60.875 37.5625ZM62 33.25C63.7292 33.25 65.0208 33.6667 65.875 34.5C66.7292 35.3333 67.1562 36.4896 67.1562 37.9688C67.1562 38.8438 66.9271 39.7604 66.4688 40.7188C66.0104 41.6771 65.2188 42.6562 64.0938 43.6562C62.9688 44.6354 61.4583 45.6458 59.5625 46.6875C57.6875 47.7083 55.3333 48.7396 52.5 49.7812C52.6042 50.3854 52.9271 50.8646 53.4688 51.2188C54.0104 51.5521 54.7292 51.7188 55.625 51.7188C56.5833 51.7188 57.6042 51.5833 58.6875 51.3125C59.7917 51.0208 60.875 50.6562 61.9375 50.2188C63.0208 49.7812 64.0729 49.3125 65.0938 48.8125C66.1146 48.2917 67.0312 47.8021 67.8438 47.3438C68.6771 46.8854 69.3646 46.4896 69.9062 46.1562C70.4688 45.8229 70.8438 45.6146 71.0312 45.5312C71.2188 45.4062 71.3854 45.3333 71.5312 45.3125C71.6979 45.2917 71.8438 45.2812 71.9688 45.2812C72.2188 45.2812 72.4271 45.3438 72.5938 45.4688C72.7604 45.5729 72.8958 45.7083 73 45.875C73.125 46.0208 73.2083 46.1875 73.25 46.375C73.2917 46.5417 73.3125 46.6875 73.3125 46.8125C73.3125 47 73.2917 47.2292 73.25 47.5C73.2083 47.75 73.0521 48.0417 72.7812 48.375C72.6771 48.4792 72.3229 48.7604 71.7188 49.2188C71.1354 49.6771 70.375 50.2188 69.4375 50.8438C68.5 51.4688 67.4062 52.1354 66.1562 52.8438C64.9271 53.5312 63.6146 54.1667 62.2188 54.75C60.8438 55.3333 59.4062 55.8125 57.9062 56.1875C56.4062 56.5833 54.9271 56.7812 53.4688 56.7812C52.2188 56.7812 51.1042 56.5417 50.125 56.0625C49.1667 55.5833 48.3438 54.9375 47.6562 54.125C46.9896 53.3125 46.4792 52.375 46.125 51.3125C45.7708 50.25 45.5938 49.1354 45.5938 47.9688C45.5938 47.0729 45.7708 46.0938 46.125 45.0312C46.4792 43.9479 46.9896 42.8646 47.6562 41.7812C48.3229 40.6979 49.1354 39.6458 50.0938 38.625C51.0729 37.5833 52.1667 36.6667 53.375 35.875C54.5833 35.0833 55.9062 34.4479 57.3438 33.9688C58.8021 33.4896 60.3542 33.25 62 33.25ZM75.2188 46.9688C74.9896 47.4479 74.7604 48.0104 74.5312 48.6562C74.3229 49.2812 74.2188 49.8438 74.2188 50.3438C74.2188 50.6562 74.2812 50.9062 74.4062 51.0938C74.5312 51.2812 74.7708 51.375 75.125 51.375C75.5625 51.375 76.1042 51.25 76.75 51C77.4167 50.7292 78.125 50.3854 78.875 49.9688C79.6458 49.5312 80.4375 49.0417 81.25 48.5C82.0833 47.9375 82.9062 47.3646 83.7188 46.7812C84.5312 46.1771 85.3021 45.5833 86.0312 45C86.7812 44.3958 87.4479 43.8438 88.0312 43.3438C88.1979 43.1979 88.3958 43.0938 88.625 43.0312C88.8542 42.9688 89.0521 42.9375 89.2188 42.9375C89.6354 42.9375 89.9792 43.0833 90.25 43.375C90.5208 43.6667 90.6562 44.0521 90.6562 44.5312C90.6562 44.9688 90.5104 45.4583 90.2188 46C89.9271 46.5417 89.4167 47.0729 88.6875 47.5938C87.3542 48.8229 86.0104 49.9896 84.6562 51.0938C83.3021 52.1979 81.9479 53.1771 80.5938 54.0312C79.2604 54.8646 77.9271 55.5312 76.5938 56.0312C75.2812 56.5312 74 56.7812 72.75 56.7812C71.8958 56.7812 71.1771 56.6667 70.5938 56.4375C70.0312 56.2083 69.5729 55.8958 69.2188 55.5C68.8854 55.1042 68.6458 54.6354 68.5 54.0938C68.3542 53.5521 68.2812 52.9792 68.2812 52.375C68.2812 51.3542 68.4271 50.3125 68.7188 49.25C69.0312 48.1667 69.3958 47.1771 69.8125 46.2812C70.5417 44.6562 71.2812 43.0417 72.0312 41.4375C72.7812 39.8333 73.4688 38.3646 74.0938 37.0312L83.5625 16.875C83.9375 16.0625 84.4375 15.4896 85.0625 15.1562C85.7083 14.8229 86.3542 14.6562 87 14.6562C87.6458 14.6562 88.2292 14.8333 88.75 15.1875C89.2917 15.5417 89.5625 16.1146 89.5625 16.9062C89.5625 17.2812 89.4688 17.6771 89.2812 18.0938C89.1146 18.5104 88.8958 18.9583 88.625 19.4375C88.1042 20.4167 87.4792 21.6146 86.75 23.0312C86.0417 24.4479 85.2708 25.9896 84.4375 27.6562C83.625 29.3229 82.7812 31.0625 81.9062 32.875C81.0521 34.6667 80.2083 36.4167 79.375 38.125C78.5625 39.8333 77.7917 41.4583 77.0625 43C76.3542 44.5208 75.7396 45.8438 75.2188 46.9688ZM94 28.9688C94 28.4896 94.0833 28 94.25 27.5C94.4375 26.9792 94.7083 26.5104 95.0625 26.0938C95.4167 25.6771 95.8542 25.3333 96.375 25.0625C96.9167 24.7917 97.5521 24.6562 98.2812 24.6562C99.4896 24.6562 100.333 24.8958 100.812 25.375C101.292 25.8333 101.531 26.4167 101.531 27.125C101.531 27.5208 101.448 27.9583 101.281 28.4375C101.135 28.9167 100.906 29.3646 100.594 29.7812C100.281 30.1771 99.875 30.5104 99.375 30.7812C98.875 31.0521 98.2812 31.1875 97.5938 31.1875C96.3021 31.1875 95.3958 30.9896 94.875 30.5938C94.3542 30.1771 94.0625 29.6354 94 28.9688ZM90.5625 36C90.9167 35.4167 91.3229 35 91.7812 34.75C92.2396 34.5 92.7083 34.375 93.1875 34.375C93.9792 34.375 94.6562 34.6354 95.2188 35.1562C95.8021 35.6562 96.0938 36.3021 96.0938 37.0938C96.0729 37.2812 96.0417 37.4688 96 37.6562C95.9792 37.8438 95.9167 38.0312 95.8125 38.2188C95.5208 38.7604 95.2812 39.2188 95.0938 39.5938C94.9062 39.9688 94.7292 40.3229 94.5625 40.6562C94.4167 40.9688 94.2708 41.2812 94.125 41.5938C93.9792 41.9062 93.8021 42.2812 93.5938 42.7188C93.3438 43.2396 93.0625 43.8125 92.75 44.4375C92.4375 45.0417 92.1354 45.6667 91.8438 46.3125C91.5729 46.9583 91.3333 47.5938 91.125 48.2188C90.9375 48.8438 90.8438 49.4167 90.8438 49.9375C90.8438 50.5 90.9792 50.875 91.25 51.0625C91.5417 51.2292 91.9479 51.3125 92.4688 51.3125C93.0521 51.3125 93.6562 51.1875 94.2812 50.9375C94.9271 50.6875 95.5729 50.3646 96.2188 49.9688C96.8646 49.5729 97.5 49.125 98.125 48.625C98.75 48.1042 99.3333 47.5833 99.875 47.0625C100.438 46.5417 100.948 46.0417 101.406 45.5625C101.885 45.0833 102.281 44.6562 102.594 44.2812C103.01 43.8854 103.427 43.6875 103.844 43.6875C104.219 43.6875 104.521 43.8542 104.75 44.1875C105 44.5208 105.125 44.9479 105.125 45.4688C105.125 45.9479 105 46.4583 104.75 47C104.521 47.5417 104.135 48.0521 103.594 48.5312C102.531 49.6146 101.448 50.6562 100.344 51.6562C99.2396 52.6354 98.1042 53.5104 96.9375 54.2812C95.7917 55.0312 94.6354 55.6354 93.4688 56.0938C92.3021 56.5521 91.125 56.7812 89.9375 56.7812C88.25 56.7812 86.9167 56.3542 85.9375 55.5C84.9792 54.625 84.5 53.2708 84.5 51.4375C84.5 50.4792 84.6354 49.5417 84.9062 48.625C85.1771 47.7083 85.5 46.8229 85.875 45.9688C86.25 45.0938 86.6458 44.2604 87.0625 43.4688C87.4792 42.6562 87.8333 41.8854 88.125 41.1562C88.2292 40.8854 88.4062 40.4688 88.6562 39.9062C88.9271 39.3438 89.2083 38.7708 89.5 38.1875C89.8333 37.5 90.1875 36.7708 90.5625 36ZM119.094 36.1562C119.094 36.8021 119.021 37.5208 118.875 38.3125C118.729 39.0833 118.49 39.8125 118.156 40.5C117.823 41.1875 117.396 41.7604 116.875 42.2188C116.354 42.6771 115.708 42.9062 114.938 42.9062C114.521 42.9062 114.25 42.8438 114.125 42.7188C114.021 42.5938 113.969 42.375 113.969 42.0625C113.969 41.875 113.969 41.6042 113.969 41.25C113.99 40.875 114 40.5208 114 40.1875C114 39.8125 113.948 39.5 113.844 39.25C113.74 38.9792 113.479 38.8438 113.062 38.8438C112.583 38.8438 112.042 39.0312 111.438 39.4062C110.854 39.7604 110.26 40.2292 109.656 40.8125C109.073 41.3958 108.5 42.0625 107.938 42.8125C107.375 43.5417 106.865 44.2917 106.406 45.0625C105.969 45.8125 105.615 46.5417 105.344 47.25C105.094 47.9583 104.969 48.5625 104.969 49.0625C104.969 49.7917 105.219 50.3646 105.719 50.7812C106.24 51.1979 106.938 51.4062 107.812 51.4062C108.75 51.4062 109.75 51.25 110.812 50.9375C111.875 50.625 112.927 50.2292 113.969 49.75C115.031 49.2708 116.052 48.75 117.031 48.1875C118.01 47.625 118.896 47.0938 119.688 46.5938C120.5 46.0729 121.177 45.6354 121.719 45.2812C122.26 44.9062 122.615 44.6771 122.781 44.5938C123.115 44.4271 123.427 44.3438 123.719 44.3438C123.969 44.3438 124.177 44.4062 124.344 44.5312C124.531 44.6354 124.677 44.7708 124.781 44.9375C124.885 45.0833 124.958 45.25 125 45.4375C125.042 45.6042 125.062 45.75 125.062 45.875C125.062 46.0625 125.042 46.2917 125 46.5625C124.958 46.8125 124.802 47.1042 124.531 47.4375C124.427 47.5625 124.083 47.8854 123.5 48.4062C122.938 48.9062 122.198 49.5 121.281 50.1875C120.385 50.875 119.344 51.6146 118.156 52.4062C116.99 53.1771 115.729 53.8854 114.375 54.5312C113.042 55.1771 111.656 55.7083 110.219 56.125C108.781 56.5625 107.365 56.7812 105.969 56.7812C104.906 56.7812 103.958 56.6146 103.125 56.2812C102.312 55.9479 101.625 55.5 101.062 54.9375C100.5 54.3542 100.073 53.6771 99.7812 52.9062C99.4896 52.1354 99.3438 51.3229 99.3438 50.4688C99.3438 49.5312 99.5625 48.4583 100 47.25C100.438 46.0208 101.042 44.7708 101.812 43.5C102.583 42.2292 103.49 40.9792 104.531 39.75C105.573 38.5208 106.698 37.4271 107.906 36.4688C109.135 35.5104 110.406 34.7396 111.719 34.1562C113.052 33.5729 114.396 33.2812 115.75 33.2812C116.208 33.2812 116.635 33.3333 117.031 33.4375C117.448 33.5417 117.802 33.7083 118.094 33.9375C118.406 34.1458 118.646 34.4375 118.812 34.8125C119 35.1875 119.094 35.6354 119.094 36.1562ZM129.188 28.9688C129.188 28.4896 129.271 28 129.438 27.5C129.625 26.9792 129.896 26.5104 130.25 26.0938C130.604 25.6771 131.042 25.3333 131.562 25.0625C132.104 24.7917 132.74 24.6562 133.469 24.6562C134.677 24.6562 135.521 24.8958 136 25.375C136.479 25.8333 136.719 26.4167 136.719 27.125C136.719 27.5208 136.635 27.9583 136.469 28.4375C136.323 28.9167 136.094 29.3646 135.781 29.7812C135.469 30.1771 135.062 30.5104 134.562 30.7812C134.062 31.0521 133.469 31.1875 132.781 31.1875C131.49 31.1875 130.583 30.9896 130.062 30.5938C129.542 30.1771 129.25 29.6354 129.188 28.9688ZM125.75 36C126.104 35.4167 126.51 35 126.969 34.75C127.427 34.5 127.896 34.375 128.375 34.375C129.167 34.375 129.844 34.6354 130.406 35.1562C130.99 35.6562 131.281 36.3021 131.281 37.0938C131.26 37.2812 131.229 37.4688 131.188 37.6562C131.167 37.8438 131.104 38.0312 131 38.2188C130.708 38.7604 130.469 39.2188 130.281 39.5938C130.094 39.9688 129.917 40.3229 129.75 40.6562C129.604 40.9688 129.458 41.2812 129.312 41.5938C129.167 41.9062 128.99 42.2812 128.781 42.7188C128.531 43.2396 128.25 43.8125 127.938 44.4375C127.625 45.0417 127.323 45.6667 127.031 46.3125C126.76 46.9583 126.521 47.5938 126.312 48.2188C126.125 48.8438 126.031 49.4167 126.031 49.9375C126.031 50.5 126.167 50.875 126.438 51.0625C126.729 51.2292 127.135 51.3125 127.656 51.3125C128.24 51.3125 128.844 51.1875 129.469 50.9375C130.115 50.6875 130.76 50.3646 131.406 49.9688C132.052 49.5729 132.688 49.125 133.312 48.625C133.938 48.1042 134.521 47.5833 135.062 47.0625C135.625 46.5417 136.135 46.0417 136.594 45.5625C137.073 45.0833 137.469 44.6562 137.781 44.2812C138.198 43.8854 138.615 43.6875 139.031 43.6875C139.406 43.6875 139.708 43.8542 139.938 44.1875C140.188 44.5208 140.312 44.9479 140.312 45.4688C140.312 45.9479 140.188 46.4583 139.938 47C139.708 47.5417 139.323 48.0521 138.781 48.5312C137.719 49.6146 136.635 50.6562 135.531 51.6562C134.427 52.6354 133.292 53.5104 132.125 54.2812C130.979 55.0312 129.823 55.6354 128.656 56.0938C127.49 56.5521 126.312 56.7812 125.125 56.7812C123.438 56.7812 122.104 56.3542 121.125 55.5C120.167 54.625 119.688 53.2708 119.688 51.4375C119.688 50.4792 119.823 49.5417 120.094 48.625C120.365 47.7083 120.688 46.8229 121.062 45.9688C121.438 45.0938 121.833 44.2604 122.25 43.4688C122.667 42.6562 123.021 41.8854 123.312 41.1562C123.417 40.8854 123.594 40.4688 123.844 39.9062C124.115 39.3438 124.396 38.7708 124.688 38.1875C125.021 37.5 125.375 36.7708 125.75 36ZM148.625 38.7812C147.646 38.7812 146.698 39.0312 145.781 39.5312C144.885 40.0104 144.083 40.6562 143.375 41.4688C142.688 42.2604 142.135 43.1667 141.719 44.1875C141.302 45.1875 141.094 46.2188 141.094 47.2812C141.094 47.6771 141.125 48.1146 141.188 48.5938C141.25 49.0521 141.375 49.4896 141.562 49.9062C141.771 50.3021 142.062 50.6354 142.438 50.9062C142.812 51.1771 143.312 51.3125 143.938 51.3125C144.896 51.3125 145.823 51.0625 146.719 50.5625C147.635 50.0417 148.448 49.375 149.156 48.5625C149.865 47.7292 150.427 46.7917 150.844 45.75C151.26 44.7083 151.469 43.6562 151.469 42.5938C151.469 42.1771 151.438 41.75 151.375 41.3125C151.333 40.8542 151.208 40.4375 151 40.0625C150.812 39.6875 150.531 39.3854 150.156 39.1562C149.781 38.9062 149.271 38.7812 148.625 38.7812ZM150.25 33.2812C151.042 33.2812 151.885 33.3854 152.781 33.5938C153.698 33.8021 154.542 34.1562 155.312 34.6562C156.083 35.1562 156.719 35.8229 157.219 36.6562C157.74 37.4688 158 38.4792 158 39.6875C158 40.3125 157.917 41.0312 157.75 41.8438C157.583 42.6354 157.333 43.4688 157 44.3438C157.208 44.5938 157.448 44.7708 157.719 44.875C157.99 44.9792 158.281 45.0312 158.594 45.0312C159.031 45.0312 159.51 44.9062 160.031 44.6562C160.573 44.4062 161.125 44.0833 161.688 43.6875C162.25 43.2917 162.812 42.8438 163.375 42.3438C163.938 41.8438 164.469 41.3438 164.969 40.8438C165.469 40.3438 165.917 39.875 166.312 39.4375C166.729 38.9792 167.073 38.5938 167.344 38.2812C167.49 38.1354 167.667 38.0625 167.875 38.0625C168.167 38.0625 168.427 38.2188 168.656 38.5312C168.885 38.8229 169 39.2396 169 39.7812C169 40.3229 168.833 40.9479 168.5 41.6562C168.188 42.3646 167.594 43.1042 166.719 43.875C166.219 44.4167 165.646 45.0417 165 45.75C164.354 46.4583 163.667 47.125 162.938 47.75C162.208 48.375 161.448 48.9062 160.656 49.3438C159.865 49.7812 159.073 50 158.281 50C157.74 50 157.208 49.9167 156.688 49.75C156.188 49.5833 155.677 49.3125 155.156 48.9375C154.406 50.1042 153.552 51.1667 152.594 52.125C151.635 53.0833 150.562 53.9062 149.375 54.5938C148.208 55.2812 146.938 55.8125 145.562 56.1875C144.208 56.5833 142.76 56.7812 141.219 56.7812C140.635 56.7812 139.958 56.6667 139.188 56.4375C138.417 56.2083 137.677 55.8333 136.969 55.3125C136.281 54.7708 135.698 54.0729 135.219 53.2188C134.74 52.3646 134.5 51.3229 134.5 50.0938C134.5 49.2604 134.635 48.2604 134.906 47.0938C135.177 45.9271 135.583 44.7292 136.125 43.5C136.688 42.25 137.385 41.0208 138.219 39.8125C139.073 38.5833 140.083 37.4896 141.25 36.5312C142.417 35.5521 143.75 34.7708 145.25 34.1875C146.75 33.5833 148.417 33.2812 150.25 33.2812ZM196.438 48.5312C195.521 49.5729 194.448 50.5938 193.219 51.5938C192.01 52.5729 190.76 53.4479 189.469 54.2188C188.177 54.9896 186.906 55.6042 185.656 56.0625C184.406 56.5417 183.281 56.7812 182.281 56.7812C181.281 56.7812 180.469 56.5 179.844 55.9375C179.219 55.375 178.906 54.4167 178.906 53.0625C178.906 52.1042 179.073 50.9896 179.406 49.7188C178.865 50.5312 178.188 51.3542 177.375 52.1875C176.562 53.0208 175.635 53.7812 174.594 54.4688C173.552 55.1562 172.385 55.7083 171.094 56.125C169.802 56.5625 168.396 56.7812 166.875 56.7812C166.188 56.7812 165.521 56.7083 164.875 56.5625C164.25 56.4167 163.698 56.1667 163.219 55.8125C162.74 55.4583 162.354 54.9896 162.062 54.4062C161.771 53.8021 161.625 53.0521 161.625 52.1562C161.625 52.1354 161.667 51.8229 161.75 51.2188C161.833 50.5938 162.094 49.625 162.531 48.3125C162.99 46.9792 163.688 45.2604 164.625 43.1562C165.562 41.0521 166.885 38.5 168.594 35.5C169.031 34.7083 169.531 34.1458 170.094 33.8125C170.677 33.4583 171.302 33.2812 171.969 33.2812C172.26 33.2812 172.562 33.3229 172.875 33.4062C173.188 33.4688 173.479 33.5833 173.75 33.75C174.021 33.8958 174.24 34.0938 174.406 34.3438C174.573 34.5729 174.656 34.8438 174.656 35.1562C174.656 35.3646 174.625 35.5625 174.562 35.75C174.458 36.1042 174.229 36.5729 173.875 37.1562C173.542 37.7188 173.146 38.375 172.688 39.125C172.229 39.8542 171.74 40.6458 171.219 41.5C170.719 42.3542 170.25 43.2396 169.812 44.1562C169.375 45.0729 169 46.0104 168.688 46.9688C168.375 47.9062 168.198 48.8229 168.156 49.7188C168.156 50.0938 168.26 50.4375 168.469 50.75C168.677 51.0625 169.021 51.2188 169.5 51.2188C170.854 51.2188 172.146 50.8438 173.375 50.0938C174.604 49.3438 175.74 48.4167 176.781 47.3125C177.823 46.1875 178.76 44.9896 179.594 43.7188C180.448 42.4271 181.156 41.25 181.719 40.1875C182.115 39.4792 182.458 38.7188 182.75 37.9062C183.062 37.0938 183.396 36.3438 183.75 35.6562C184.104 34.9688 184.51 34.3958 184.969 33.9375C185.427 33.4792 186 33.25 186.688 33.25C187.438 33.25 188.031 33.4896 188.469 33.9688C188.906 34.4479 189.125 35.0208 189.125 35.6875C189.125 36.0625 188.979 36.5833 188.688 37.25C188.417 37.8958 188.062 38.6458 187.625 39.5C187.208 40.3333 186.75 41.2292 186.25 42.1875C185.75 43.1458 185.281 44.125 184.844 45.125C184.427 46.1042 184.073 47.0729 183.781 48.0312C183.51 48.9688 183.375 49.8438 183.375 50.6562C183.375 51.4062 183.833 51.7812 184.75 51.7812C185.396 51.7812 186.198 51.5938 187.156 51.2188C188.115 50.8438 189.115 50.3229 190.156 49.6562C191.219 48.9688 192.271 48.1667 193.312 47.25C194.375 46.3333 195.312 45.3438 196.125 44.2812L196.438 48.5312ZM201.125 38.4062C202.396 39.0729 203.531 39.8333 204.531 40.6875C205.531 41.5417 206.375 42.4479 207.062 43.4062C207.771 44.3438 208.302 45.3021 208.656 46.2812C209.031 47.2604 209.219 48.2188 209.219 49.1562C209.219 50.3438 208.875 51.4167 208.188 52.375C207.521 53.3125 206.635 54.1146 205.531 54.7812C204.448 55.4271 203.198 55.9167 201.781 56.25C200.385 56.6042 198.969 56.7812 197.531 56.7812C196.448 56.7812 195.396 56.6562 194.375 56.4062C193.354 56.1771 192.417 55.8125 191.562 55.3125C190.729 54.8125 190.01 54.1771 189.406 53.4062C188.802 52.6146 188.375 51.6771 188.125 50.5938C188.083 50.4271 188.062 50.2917 188.062 50.1875C188.062 49.625 188.26 49.1458 188.656 48.75C189.052 48.3333 189.49 48.125 189.969 48.125C190.198 48.125 190.448 48.1667 190.719 48.25C191.01 48.3333 191.229 48.5208 191.375 48.8125C191.646 49.3125 192.021 49.7604 192.5 50.1562C193 50.5521 193.552 50.8958 194.156 51.1875C194.76 51.4583 195.396 51.6771 196.062 51.8438C196.75 51.9896 197.417 52.0625 198.062 52.0625C198.729 52.0625 199.365 52 199.969 51.875C200.594 51.75 201.135 51.5521 201.594 51.2812C202.073 51.0104 202.448 50.6667 202.719 50.25C202.99 49.8333 203.125 49.3229 203.125 48.7188C203.125 47.6562 202.885 46.6771 202.406 45.7812C201.927 44.8854 201.302 44.0625 200.531 43.3125C199.781 42.5417 198.917 41.8333 197.938 41.1875C196.979 40.5208 196.021 39.8854 195.062 39.2812C194.958 39.2188 194.802 39.0417 194.594 38.75C194.385 38.4375 194.281 38.125 194.281 37.8125C194.281 37.5625 194.344 37.3646 194.469 37.2188C194.802 36.7812 195.188 36.3333 195.625 35.875C196.062 35.4167 196.531 35 197.031 34.625C197.531 34.2292 198.073 33.9167 198.656 33.6875C199.24 33.4375 199.844 33.3125 200.469 33.3125C200.927 33.3125 201.354 33.375 201.75 33.5C202.146 33.625 202.479 33.7917 202.75 34C203.021 34.1875 203.229 34.4062 203.375 34.6562C203.542 34.8854 203.625 35.1042 203.625 35.3125C203.625 35.6042 203.552 35.8854 203.406 36.1562C203.26 36.4271 203.062 36.6875 202.812 36.9375C202.583 37.1875 202.312 37.4375 202 37.6875C201.708 37.9375 201.417 38.1771 201.125 38.4062Z" transform="translate(-6 -10)" fill="black"/>
</svg>
