<svg width="204" height="48" viewBox="0 0 204 48" fill="none" xmlns="http://www.w3.org/2000/svg">
<path d="M36 27.8438C35.6458 28.4896 35.1771 29.3438 34.5938 30.4062C34.0312 31.4688 33.375 32.6562 32.625 33.9688C31.8958 35.2812 31.0938 36.6979 30.2188 38.2188C29.3646 39.7188 28.4688 41.2292 27.5312 42.75C26.6146 44.2708 25.6667 45.7708 24.6875 47.25C23.7292 48.7083 22.7917 50.0625 21.875 51.3125C24.125 51.0833 26.2917 50.5104 28.375 49.5938C30.4583 48.6771 32.4062 47.5417 34.2188 46.1875C36.0521 44.8125 37.7188 43.2812 39.2188 41.5938C40.7396 39.8854 42.0312 38.125 43.0938 36.3125C44.1771 34.4792 45.0104 32.6458 45.5938 30.8125C46.1979 28.9792 46.5 27.25 46.5 25.625C46.5 24.25 46.3229 22.9792 45.9688 21.8125C45.6354 20.6458 45.1146 19.6354 44.4062 18.7812C43.7188 17.9271 42.8333 17.2604 41.75 16.7812C40.6667 16.3021 39.3958 16.0625 37.9375 16.0625C36.5833 16.0625 35.2188 16.1979 33.8438 16.4688C32.4896 16.7188 31.1875 17.0625 29.9375 17.5C28.6875 17.9375 27.5312 18.4583 26.4688 19.0625C25.4271 19.6458 24.5312 20.2812 23.7812 20.9688C22.9479 21.8854 22.2083 22.8021 21.5625 23.7188C20.9375 24.6354 20.3125 25.4583 19.6875 26.1875C19.0833 26.9167 18.4271 27.5104 17.7188 27.9688C17.0104 28.4271 16.1771 28.6562 15.2188 28.6562C13.4271 28.6562 12.5312 27.8646 12.5312 26.2812C12.5312 25.2812 12.8542 24.2083 13.5 23.0625C14.1458 21.8958 15.0417 20.75 16.1875 19.625C17.3542 18.4792 18.7292 17.3854 20.3125 16.3438C21.9167 15.2812 23.6771 14.3542 25.5938 13.5625C27.5104 12.75 29.5521 12.1042 31.7188 11.625C33.8854 11.1458 36.1146 10.9062 38.4062 10.9062C41.0729 10.9062 43.3958 11.3021 45.375 12.0938C47.3542 12.8854 48.9896 13.9792 50.2812 15.375C51.5938 16.75 52.5625 18.375 53.1875 20.25C53.8333 22.125 54.1562 24.1458 54.1562 26.3125C54.1562 28.4792 53.7812 30.75 53.0312 33.125C52.3021 35.5 51.2188 37.8333 49.7812 40.125C48.3646 42.4167 46.6042 44.5938 44.5 46.6562C42.4167 48.7188 40.0104 50.5312 37.2812 52.0938C34.5729 53.6562 31.5625 54.8958 28.25 55.8125C24.9583 56.7292 21.3958 57.1875 17.5625 57.1875C16.7292 57.1875 16.0729 56.9167 15.5938 56.375C15.1146 55.8542 14.875 55.2083 14.875 54.4375C14.875 53.8333 14.9792 53.25 15.1875 52.6875C15.3958 52.125 15.6667 51.6042 16 51.125L28.8438 25.5938C29.4479 24.6562 30.0417 23.9062 30.625 23.3438C31.2292 22.7812 31.7812 22.3438 32.2812 22.0312C32.8021 21.7188 33.2604 21.5208 33.6562 21.4375C34.0521 21.3333 34.3542 21.2812 34.5625 21.2812C35.5 21.2812 36.1667 21.5521 36.5625 22.0938C36.9583 22.6354 37.1562 23.2812 37.1562 24.0312C37.1562 24.6354 37.0521 25.2708 36.8438 25.9375C36.6354 26.6042 36.3542 27.2396 36 27.8438ZM66.875 37.5625C66.7708 37.5417 66.6771 37.5312 66.5938 37.5312C66.5104 37.5312 66.4167 37.5312 66.3125 37.5312C65.5208 37.5312 64.7812 37.6875 64.0938 38C63.4062 38.3125 62.7708 38.7292 62.1875 39.25C61.625 39.75 61.1146 40.3229 60.6562 40.9688C60.2188 41.6146 59.8229 42.2604 59.4688 42.9062C59.1146 43.5312 58.8125 44.1354 58.5625 44.7188C58.3333 45.3021 58.1562 45.7917 58.0312 46.1875C58.7604 45.8125 59.5104 45.3854 60.2812 44.9062C61.0729 44.4271 61.8125 43.9688 62.5 43.5312C63.1875 43.0938 63.7812 42.6979 64.2812 42.3438C64.8021 41.9896 65.1667 41.75 65.375 41.625C66.3125 41.0417 66.9583 40.5 67.3125 40C67.6667 39.4792 67.8438 39.0312 67.8438 38.6562C67.8438 38.3438 67.7396 38.0938 67.5312 37.9062C67.3438 37.7188 67.125 37.6042 66.875 37.5625ZM68 33.25C69.7292 33.25 71.0208 33.6667 71.875 34.5C72.7292 35.3333 73.1562 36.4896 73.1562 37.9688C73.1562 38.8438 72.9271 39.7604 72.4688 40.7188C72.0104 41.6771 71.2188 42.6562 70.0938 43.6562C68.9688 44.6354 67.4583 45.6458 65.5625 46.6875C63.6875 47.7083 61.3333 48.7396 58.5 49.7812C58.6042 50.3854 58.9271 50.8646 59.4688 51.2188C60.0104 51.5521 60.7292 51.7188 61.625 51.7188C62.5833 51.7188 63.6042 51.5833 64.6875 51.3125C65.7917 51.0208 66.875 50.6562 67.9375 50.2188C69.0208 49.7812 70.0729 49.3125 71.0938 48.8125C72.1146 48.2917 73.0312 47.8021 73.8438 47.3438C74.6771 46.8854 75.3646 46.4896 75.9062 46.1562C76.4688 45.8229 76.8438 45.6146 77.0312 45.5312C77.2188 45.4062 77.3854 45.3333 77.5312 45.3125C77.6979 45.2917 77.8438 45.2812 77.9688 45.2812C78.2188 45.2812 78.4271 45.3438 78.5938 45.4688C78.7604 45.5729 78.8958 45.7083 79 45.875C79.125 46.0208 79.2083 46.1875 79.25 46.375C79.2917 46.5417 79.3125 46.6875 79.3125 46.8125C79.3125 47 79.2917 47.2292 79.25 47.5C79.2083 47.75 79.0521 48.0417 78.7812 48.375C78.6771 48.4792 78.3229 48.7604 77.7188 49.2188C77.1354 49.6771 76.375 50.2188 75.4375 50.8438C74.5 51.4688 73.4062 52.1354 72.1562 52.8438C70.9271 53.5312 69.6146 54.1667 68.2188 54.75C66.8438 55.3333 65.4062 55.8125 63.9062 56.1875C62.4062 56.5833 60.9271 56.7812 59.4688 56.7812C58.2188 56.7812 57.1042 56.5417 56.125 56.0625C55.1667 55.5833 54.3438 54.9375 53.6562 54.125C52.9896 53.3125 52.4792 52.375 52.125 51.3125C51.7708 50.25 51.5938 49.1354 51.5938 47.9688C51.5938 47.0729 51.7708 46.0938 52.125 45.0312C52.4792 43.9479 52.9896 42.8646 53.6562 41.7812C54.3229 40.6979 55.1354 39.6458 56.0938 38.625C57.0729 37.5833 58.1667 36.6667 59.375 35.875C60.5833 35.0833 61.9062 34.4479 63.3438 33.9688C64.8021 33.4896 66.3542 33.25 68 33.25ZM81.2188 46.9688C80.9896 47.4479 80.7604 48.0104 80.5312 48.6562C80.3229 49.2812 80.2188 49.8438 80.2188 50.3438C80.2188 50.6562 80.2812 50.9062 80.4062 51.0938C80.5312 51.2812 80.7708 51.375 81.125 51.375C81.5625 51.375 82.1042 51.25 82.75 51C83.4167 50.7292 84.125 50.3854 84.875 49.9688C85.6458 49.5312 86.4375 49.0417 87.25 48.5C88.0833 47.9375 88.9062 47.3646 89.7188 46.7812C90.5312 46.1771 91.3021 45.5833 92.0312 45C92.7812 44.3958 93.4479 43.8438 94.0312 43.3438C94.1979 43.1979 94.3958 43.0938 94.625 43.0312C94.8542 42.9688 95.0521 42.9375 95.2188 42.9375C95.6354 42.9375 95.9792 43.0833 96.25 43.375C96.5208 43.6667 96.6562 44.0521 96.6562 44.5312C96.6562 44.9688 96.5104 45.4583 96.2188 46C95.9271 46.5417 95.4167 47.0729 94.6875 47.5938C93.3542 48.8229 92.0104 49.9896 90.6562 51.0938C89.3021 52.1979 87.9479 53.1771 86.5938 54.0312C85.2604 54.8646 83.9271 55.5312 82.5938 56.0312C81.2812 56.5312 80 56.7812 78.75 56.7812C77.8958 56.7812 77.1771 56.6667 76.5938 56.4375C76.0312 56.2083 75.5729 55.8958 75.2188 55.5C74.8854 55.1042 74.6458 54.6354 74.5 54.0938C74.3542 53.5521 74.2812 52.9792 74.2812 52.375C74.2812 51.3542 74.4271 50.3125 74.7188 49.25C75.0312 48.1667 75.3958 47.1771 75.8125 46.2812C76.5417 44.6562 77.2812 43.0417 78.0312 41.4375C78.7812 39.8333 79.4688 38.3646 80.0938 37.0312L89.5625 16.875C89.9375 16.0625 90.4375 15.4896 91.0625 15.1562C91.7083 14.8229 92.3542 14.6562 93 14.6562C93.6458 14.6562 94.2292 14.8333 94.75 15.1875C95.2917 15.5417 95.5625 16.1146 95.5625 16.9062C95.5625 17.2812 95.4688 17.6771 95.2812 18.0938C95.1146 18.5104 94.8958 18.9583 94.625 19.4375C94.1042 20.4167 93.4792 21.6146 92.75 23.0312C92.0417 24.4479 91.2708 25.9896 90.4375 27.6562C89.625 29.3229 88.7812 31.0625 87.9062 32.875C87.0521 34.6667 86.2083 36.4167 85.375 38.125C84.5625 39.8333 83.7917 41.4583 83.0625 43C82.3542 44.5208 81.7396 45.8438 81.2188 46.9688ZM100 28.9688C100 28.4896 100.083 28 100.25 27.5C100.438 26.9792 100.708 26.5104 101.062 26.0938C101.417 25.6771 101.854 25.3333 102.375 25.0625C102.917 24.7917 103.552 24.6562 104.281 24.6562C105.49 24.6562 106.333 24.8958 106.812 25.375C107.292 25.8333 107.531 26.4167 107.531 27.125C107.531 27.5208 107.448 27.9583 107.281 28.4375C107.135 28.9167 106.906 29.3646 106.594 29.7812C106.281 30.1771 105.875 30.5104 105.375 30.7812C104.875 31.0521 104.281 31.1875 103.594 31.1875C102.302 31.1875 101.396 30.9896 100.875 30.5938C100.354 30.1771 100.062 29.6354 100 28.9688ZM96.5625 36C96.9167 35.4167 97.3229 35 97.7812 34.75C98.2396 34.5 98.7083 34.375 99.1875 34.375C99.9792 34.375 100.656 34.6354 101.219 35.1562C101.802 35.6562 102.094 36.3021 102.094 37.0938C102.073 37.2812 102.042 37.4688 102 37.6562C101.979 37.8438 101.917 38.0312 101.812 38.2188C101.521 38.7604 101.281 39.2188 101.094 39.5938C100.906 39.9688 100.729 40.3229 100.562 40.6562C100.417 40.9688 100.271 41.2812 100.125 41.5938C99.9792 41.9062 99.8021 42.2812 99.5938 42.7188C99.3438 43.2396 99.0625 43.8125 98.75 44.4375C98.4375 45.0417 98.1354 45.6667 97.8438 46.3125C97.5729 46.9583 97.3333 47.5938 97.125 48.2188C96.9375 48.8438 96.8438 49.4167 96.8438 49.9375C96.8438 50.5 96.9792 50.875 97.25 51.0625C97.5417 51.2292 97.9479 51.3125 98.4688 51.3125C99.0521 51.3125 99.6562 51.1875 100.281 50.9375C100.927 50.6875 101.573 50.3646 102.219 49.9688C102.865 49.5729 103.5 49.125 104.125 48.625C104.75 48.1042 105.333 47.5833 105.875 47.0625C106.438 46.5417 106.948 46.0417 107.406 45.5625C107.885 45.0833 108.281 44.6562 108.594 44.2812C109.01 43.8854 109.427 43.6875 109.844 43.6875C110.219 43.6875 110.521 43.8542 110.75 44.1875C111 44.5208 111.125 44.9479 111.125 45.4688C111.125 45.9479 111 46.4583 110.75 47C110.521 47.5417 110.135 48.0521 109.594 48.5312C108.531 49.6146 107.448 50.6562 106.344 51.6562C105.24 52.6354 104.104 53.5104 102.938 54.2812C101.792 55.0312 100.635 55.6354 99.4688 56.0938C98.3021 56.5521 97.125 56.7812 95.9375 56.7812C94.25 56.7812 92.9167 56.3542 91.9375 55.5C90.9792 54.625 90.5 53.2708 90.5 51.4375C90.5 50.4792 90.6354 49.5417 90.9062 48.625C91.1771 47.7083 91.5 46.8229 91.875 45.9688C92.25 45.0938 92.6458 44.2604 93.0625 43.4688C93.4792 42.6562 93.8333 41.8854 94.125 41.1562C94.2292 40.8854 94.4062 40.4688 94.6562 39.9062C94.9271 39.3438 95.2083 38.7708 95.5 38.1875C95.8333 37.5 96.1875 36.7708 96.5625 36ZM125.094 36.1562C125.094 36.8021 125.021 37.5208 124.875 38.3125C124.729 39.0833 124.49 39.8125 124.156 40.5C123.823 41.1875 123.396 41.7604 122.875 42.2188C122.354 42.6771 121.708 42.9062 120.938 42.9062C120.521 42.9062 120.25 42.8438 120.125 42.7188C120.021 42.5938 119.969 42.375 119.969 42.0625C119.969 41.875 119.969 41.6042 119.969 41.25C119.99 40.875 120 40.5208 120 40.1875C120 39.8125 119.948 39.5 119.844 39.25C119.74 38.9792 119.479 38.8438 119.062 38.8438C118.583 38.8438 118.042 39.0312 117.438 39.4062C116.854 39.7604 116.26 40.2292 115.656 40.8125C115.073 41.3958 114.5 42.0625 113.938 42.8125C113.375 43.5417 112.865 44.2917 112.406 45.0625C111.969 45.8125 111.615 46.5417 111.344 47.25C111.094 47.9583 110.969 48.5625 110.969 49.0625C110.969 49.7917 111.219 50.3646 111.719 50.7812C112.24 51.1979 112.938 51.4062 113.812 51.4062C114.75 51.4062 115.75 51.25 116.812 50.9375C117.875 50.625 118.927 50.2292 119.969 49.75C121.031 49.2708 122.052 48.75 123.031 48.1875C124.01 47.625 124.896 47.0938 125.688 46.5938C126.5 46.0729 127.177 45.6354 127.719 45.2812C128.26 44.9062 128.615 44.6771 128.781 44.5938C129.115 44.4271 129.427 44.3438 129.719 44.3438C129.969 44.3438 130.177 44.4062 130.344 44.5312C130.531 44.6354 130.677 44.7708 130.781 44.9375C130.885 45.0833 130.958 45.25 131 45.4375C131.042 45.6042 131.062 45.75 131.062 45.875C131.062 46.0625 131.042 46.2917 131 46.5625C130.958 46.8125 130.802 47.1042 130.531 47.4375C130.427 47.5625 130.083 47.8854 129.5 48.4062C128.938 48.9062 128.198 49.5 127.281 50.1875C126.385 50.875 125.344 51.6146 124.156 52.4062C122.99 53.1771 121.729 53.8854 120.375 54.5312C119.042 55.1771 117.656 55.7083 116.219 56.125C114.781 56.5625 113.365 56.7812 111.969 56.7812C110.906 56.7812 109.958 56.6146 109.125 56.2812C108.312 55.9479 107.625 55.5 107.062 54.9375C106.5 54.3542 106.073 53.6771 105.781 52.9062C105.49 52.1354 105.344 51.3229 105.344 50.4688C105.344 49.5312 105.562 48.4583 106 47.25C106.438 46.0208 107.042 44.7708 107.812 43.5C108.583 42.2292 109.49 40.9792 110.531 39.75C111.573 38.5208 112.698 37.4271 113.906 36.4688C115.135 35.5104 116.406 34.7396 117.719 34.1562C119.052 33.5729 120.396 33.2812 121.75 33.2812C122.208 33.2812 122.635 33.3333 123.031 33.4375C123.448 33.5417 123.802 33.7083 124.094 33.9375C124.406 34.1458 124.646 34.4375 124.812 34.8125C125 35.1875 125.094 35.6354 125.094 36.1562ZM135.188 28.9688C135.188 28.4896 135.271 28 135.438 27.5C135.625 26.9792 135.896 26.5104 136.25 26.0938C136.604 25.6771 137.042 25.3333 137.562 25.0625C138.104 24.7917 138.74 24.6562 139.469 24.6562C140.677 24.6562 141.521 24.8958 142 25.375C142.479 25.8333 142.719 26.4167 142.719 27.125C142.719 27.5208 142.635 27.9583 142.469 28.4375C142.323 28.9167 142.094 29.3646 141.781 29.7812C141.469 30.1771 141.062 30.5104 140.562 30.7812C140.062 31.0521 139.469 31.1875 138.781 31.1875C137.49 31.1875 136.583 30.9896 136.062 30.5938C135.542 30.1771 135.25 29.6354 135.188 28.9688ZM131.75 36C132.104 35.4167 132.51 35 132.969 34.75C133.427 34.5 133.896 34.375 134.375 34.375C135.167 34.375 135.844 34.6354 136.406 35.1562C136.99 35.6562 137.281 36.3021 137.281 37.0938C137.26 37.2812 137.229 37.4688 137.188 37.6562C137.167 37.8438 137.104 38.0312 137 38.2188C136.708 38.7604 136.469 39.2188 136.281 39.5938C136.094 39.9688 135.917 40.3229 135.75 40.6562C135.604 40.9688 135.458 41.2812 135.312 41.5938C135.167 41.9062 134.99 42.2812 134.781 42.7188C134.531 43.2396 134.25 43.8125 133.938 44.4375C133.625 45.0417 133.323 45.6667 133.031 46.3125C132.76 46.9583 132.521 47.5938 132.312 48.2188C132.125 48.8438 132.031 49.4167 132.031 49.9375C132.031 50.5 132.167 50.875 132.438 51.0625C132.729 51.2292 133.135 51.3125 133.656 51.3125C134.24 51.3125 134.844 51.1875 135.469 50.9375C136.115 50.6875 136.76 50.3646 137.406 49.9688C138.052 49.5729 138.688 49.125 139.312 48.625C139.938 48.1042 140.521 47.5833 141.062 47.0625C141.625 46.5417 142.135 46.0417 142.594 45.5625C143.073 45.0833 143.469 44.6562 143.781 44.2812C144.198 43.8854 144.615 43.6875 145.031 43.6875C145.406 43.6875 145.708 43.8542 145.938 44.1875C146.188 44.5208 146.312 44.9479 146.312 45.4688C146.312 45.9479 146.188 46.4583 145.938 47C145.708 47.5417 145.323 48.0521 144.781 48.5312C143.719 49.6146 142.635 50.6562 141.531 51.6562C140.427 52.6354 139.292 53.5104 138.125 54.2812C136.979 55.0312 135.823 55.6354 134.656 56.0938C133.49 56.5521 132.312 56.7812 131.125 56.7812C129.438 56.7812 128.104 56.3542 127.125 55.5C126.167 54.625 125.688 53.2708 125.688 51.4375C125.688 50.4792 125.823 49.5417 126.094 48.625C126.365 47.7083 126.688 46.8229 127.062 45.9688C127.438 45.0938 127.833 44.2604 128.25 43.4688C128.667 42.6562 129.021 41.8854 129.312 41.1562C129.417 40.8854 129.594 40.4688 129.844 39.9062C130.115 39.3438 130.396 38.7708 130.688 38.1875C131.021 37.5 131.375 36.7708 131.75 36ZM154.625 38.7812C153.646 38.7812 152.698 39.0312 151.781 39.5312C150.885 40.0104 150.083 40.6562 149.375 41.4688C148.688 42.2604 148.135 43.1667 147.719 44.1875C147.302 45.1875 147.094 46.2188 147.094 47.2812C147.094 47.6771 147.125 48.1146 147.188 48.5938C147.25 49.0521 147.375 49.4896 147.562 49.9062C147.771 50.3021 148.062 50.6354 148.438 50.9062C148.812 51.1771 149.312 51.3125 149.938 51.3125C150.896 51.3125 151.823 51.0625 152.719 50.5625C153.635 50.0417 154.448 49.375 155.156 48.5625C155.865 47.7292 156.427 46.7917 156.844 45.75C157.26 44.7083 157.469 43.6562 157.469 42.5938C157.469 42.1771 157.438 41.75 157.375 41.3125C157.333 40.8542 157.208 40.4375 157 40.0625C156.812 39.6875 156.531 39.3854 156.156 39.1562C155.781 38.9062 155.271 38.7812 154.625 38.7812ZM156.25 33.2812C157.042 33.2812 157.885 33.3854 158.781 33.5938C159.698 33.8021 160.542 34.1562 161.312 34.6562C162.083 35.1562 162.719 35.8229 163.219 36.6562C163.74 37.4688 164 38.4792 164 39.6875C164 40.3125 163.917 41.0312 163.75 41.8438C163.583 42.6354 163.333 43.4688 163 44.3438C163.208 44.5938 163.448 44.7708 163.719 44.875C163.99 44.9792 164.281 45.0312 164.594 45.0312C165.031 45.0312 165.51 44.9062 166.031 44.6562C166.573 44.4062 167.125 44.0833 167.688 43.6875C168.25 43.2917 168.812 42.8438 169.375 42.3438C169.938 41.8438 170.469 41.3438 170.969 40.8438C171.469 40.3438 171.917 39.875 172.312 39.4375C172.729 38.9792 173.073 38.5938 173.344 38.2812C173.49 38.1354 173.667 38.0625 173.875 38.0625C174.167 38.0625 174.427 38.2188 174.656 38.5312C174.885 38.8229 175 39.2396 175 39.7812C175 40.3229 174.833 40.9479 174.5 41.6562C174.188 42.3646 173.594 43.1042 172.719 43.875C172.219 44.4167 171.646 45.0417 171 45.75C170.354 46.4583 169.667 47.125 168.938 47.75C168.208 48.375 167.448 48.9062 166.656 49.3438C165.865 49.7812 165.073 50 164.281 50C163.74 50 163.208 49.9167 162.688 49.75C162.188 49.5833 161.677 49.3125 161.156 48.9375C160.406 50.1042 159.552 51.1667 158.594 52.125C157.635 53.0833 156.562 53.9062 155.375 54.5938C154.208 55.2812 152.938 55.8125 151.562 56.1875C150.208 56.5833 148.76 56.7812 147.219 56.7812C146.635 56.7812 145.958 56.6667 145.188 56.4375C144.417 56.2083 143.677 55.8333 142.969 55.3125C142.281 54.7708 141.698 54.0729 141.219 53.2188C140.74 52.3646 140.5 51.3229 140.5 50.0938C140.5 49.2604 140.635 48.2604 140.906 47.0938C141.177 45.9271 141.583 44.7292 142.125 43.5C142.688 42.25 143.385 41.0208 144.219 39.8125C145.073 38.5833 146.083 37.4896 147.25 36.5312C148.417 35.5521 149.75 34.7708 151.25 34.1875C152.75 33.5833 154.417 33.2812 156.25 33.2812ZM202.438 48.5312C201.521 49.5729 200.448 50.5938 199.219 51.5938C198.01 52.5729 196.76 53.4479 195.469 54.2188C194.177 54.9896 192.906 55.6042 191.656 56.0625C190.406 56.5417 189.281 56.7812 188.281 56.7812C187.281 56.7812 186.469 56.5 185.844 55.9375C185.219 55.375 184.906 54.4167 184.906 53.0625C184.906 52.1042 185.073 50.9896 185.406 49.7188C184.865 50.5312 184.188 51.3542 183.375 52.1875C182.562 53.0208 181.635 53.7812 180.594 54.4688C179.552 55.1562 178.385 55.7083 177.094 56.125C175.802 56.5625 174.396 56.7812 172.875 56.7812C172.188 56.7812 171.521 56.7083 170.875 56.5625C170.25 56.4167 169.698 56.1667 169.219 55.8125C168.74 55.4583 168.354 54.9896 168.062 54.4062C167.771 53.8021 167.625 53.0521 167.625 52.1562C167.625 52.1354 167.667 51.8229 167.75 51.2188C167.833 50.5938 168.094 49.625 168.531 48.3125C168.99 46.9792 169.688 45.2604 170.625 43.1562C171.562 41.0521 172.885 38.5 174.594 35.5C175.031 34.7083 175.531 34.1458 176.094 33.8125C176.677 33.4583 177.302 33.2812 177.969 33.2812C178.26 33.2812 178.562 33.3229 178.875 33.4062C179.188 33.4688 179.479 33.5833 179.75 33.75C180.021 33.8958 180.24 34.0938 180.406 34.3438C180.573 34.5729 180.656 34.8438 180.656 35.1562C180.656 35.3646 180.625 35.5625 180.562 35.75C180.458 36.1042 180.229 36.5729 179.875 37.1562C179.542 37.7188 179.146 38.375 178.688 39.125C178.229 39.8542 177.74 40.6458 177.219 41.5C176.719 42.3542 176.25 43.2396 175.812 44.1562C175.375 45.0729 175 46.0104 174.688 46.9688C174.375 47.9062 174.198 48.8229 174.156 49.7188C174.156 50.0938 174.26 50.4375 174.469 50.75C174.677 51.0625 175.021 51.2188 175.5 51.2188C176.854 51.2188 178.146 50.8438 179.375 50.0938C180.604 49.3438 181.74 48.4167 182.781 47.3125C183.823 46.1875 184.76 44.9896 185.594 43.7188C186.448 42.4271 187.156 41.25 187.719 40.1875C188.115 39.4792 188.458 38.7188 188.75 37.9062C189.062 37.0938 189.396 36.3438 189.75 35.6562C190.104 34.9688 190.51 34.3958 190.969 33.9375C191.427 33.4792 192 33.25 192.688 33.25C193.438 33.25 194.031 33.4896 194.469 33.9688C194.906 34.4479 195.125 35.0208 195.125 35.6875C195.125 36.0625 194.979 36.5833 194.688 37.25C194.417 37.8958 194.062 38.6458 193.625 39.5C193.208 40.3333 192.75 41.2292 192.25 42.1875C191.75 43.1458 191.281 44.125 190.844 45.125C190.427 46.1042 190.073 47.0729 189.781 48.0312C189.51 48.9688 189.375 49.8438 189.375 50.6562C189.375 51.4062 189.833 51.7812 190.75 51.7812C191.396 51.7812 192.198 51.5938 193.156 51.2188C194.115 50.8438 195.115 50.3229 196.156 49.6562C197.219 48.9688 198.271 48.1667 199.312 47.25C200.375 46.3333 201.312 45.3438 202.125 44.2812L202.438 48.5312ZM207.125 38.4062C208.396 39.0729 209.531 39.8333 210.531 40.6875C211.531 41.5417 212.375 42.4479 213.062 43.4062C213.771 44.3438 214.302 45.3021 214.656 46.2812C215.031 47.2604 215.219 48.2188 215.219 49.1562C215.219 50.3438 214.875 51.4167 214.188 52.375C213.521 53.3125 212.635 54.1146 211.531 54.7812C210.448 55.4271 209.198 55.9167 207.781 56.25C206.385 56.6042 204.969 56.7812 203.531 56.7812C202.448 56.7812 201.396 56.6562 200.375 56.4062C199.354 56.1771 198.417 55.8125 197.562 55.3125C196.729 54.8125 196.01 54.1771 195.406 53.4062C194.802 52.6146 194.375 51.6771 194.125 50.5938C194.083 50.4271 194.062 50.2917 194.062 50.1875C194.062 49.625 194.26 49.1458 194.656 48.75C195.052 48.3333 195.49 48.125 195.969 48.125C196.198 48.125 196.448 48.1667 196.719 48.25C197.01 48.3333 197.229 48.5208 197.375 48.8125C197.646 49.3125 198.021 49.7604 198.5 50.1562C199 50.5521 199.552 50.8958 200.156 51.1875C200.76 51.4583 201.396 51.6771 202.062 51.8438C202.75 51.9896 203.417 52.0625 204.062 52.0625C204.729 52.0625 205.365 52 205.969 51.875C206.594 51.75 207.135 51.5521 207.594 51.2812C208.073 51.0104 208.448 50.6667 208.719 50.25C208.99 49.8333 209.125 49.3229 209.125 48.7188C209.125 47.6562 208.885 46.6771 208.406 45.7812C207.927 44.8854 207.302 44.0625 206.531 43.3125C205.781 42.5417 204.917 41.8333 203.938 41.1875C202.979 40.5208 202.021 39.8854 201.062 39.2812C200.958 39.2188 200.802 39.0417 200.594 38.75C200.385 38.4375 200.281 38.125 200.281 37.8125C200.281 37.5625 200.344 37.3646 200.469 37.2188C200.802 36.7812 201.188 36.3333 201.625 35.875C202.062 35.4167 202.531 35 203.031 34.625C203.531 34.2292 204.073 33.9167 204.656 33.6875C205.24 33.4375 205.844 33.3125 206.469 33.3125C206.927 33.3125 207.354 33.375 207.75 33.5C208.146 33.625 208.479 33.7917 208.75 34C209.021 34.1875 209.229 34.4062 209.375 34.6562C209.542 34.8854 209.625 35.1042 209.625 35.3125C209.625 35.6042 209.552 35.8854 209.406 36.1562C209.26 36.4271 209.062 36.6875 208.812 36.9375C208.583 37.1875 208.312 37.4375 208 37.6875C207.708 37.9375 207.417 38.1771 207.125 38.4062Z" transform="translate(-12 -10)" fill="black"/>
</svg>
